<?xml version="1.0" encoding="utf-8"?>
<!-- Generator: Adobe Illustrator 22.1.0, SVG Export Plug-In . SVG Version: 6.00 Build 0)  -->
<svg version="1.1" id="Слой_1" xmlns="http://www.w3.org/2000/svg" xmlns:xlink="http://www.w3.org/1999/xlink" x="0px" y="0px"
	 viewBox="0 0 424.6 474.9" style="enable-background:new 0 0 424.6 474.9;" xml:space="preserve">
<style type="text/css">
	.st0{fill:#FEFEFE;}
	.st1{fill:#373462;}
</style>
<g>
	<path class="st0" d="M238.2-0.2c61.9,0,123.8,0,185.7,0c1,0,1.2,0.1,1.2,1.2c0,157.8,0,315.6,0,473.4c0,1-0.2,1.2-1.2,1.2
		c-141.1,0-282.3,0-423.4,0c-1.1,0-1.2-0.3-1.2-1.3c0-69.5,0-139,0-208.5h0.1h0.1c0,0.2,0.1,0.5,0.1,0.7c0,5.9,0.4,11.7,1,17.6
		c1.6,16,5,31.7,10.2,46.9c11.2,32.5,29.1,60.6,53.8,84.5c18.7,18.1,39.9,32.2,63.8,42.5c19.2,8.3,39.2,13.5,60,15.9
		c11.3,1.3,22.6,1.6,33.9,1.1c11.2-0.5,22.4-1.9,33.4-4.2c18.8-3.9,36.8-10.3,53.8-19.2c20.6-10.7,39.1-24.4,55.2-41.1
		c15.8-16.3,28.6-34.5,38.5-54.9c11.4-23.4,18.3-48.1,20.6-74.1c1.2-13,1.1-26-0.1-39c-1.3-13.5-3.8-26.7-7.6-39.7
		c-11.2-37.8-31.4-70-60.3-96.7c-16.8-15.5-35.6-27.9-56.4-37.3c-15.5-7-31.5-12.1-48.2-15.1c-1.1-0.2-1.5-0.5-1.5-1.8
		c0.1-13,0-25.9,0-38.9c0-7.2-4.3-12.1-11.5-12.9C238.2-0.1,238.2-0.2,238.2-0.2z"/>
	<path class="st0" d="M-0.6,259.2c0-86.1,0-172.2,0-258.4c0-0.9,0.2-1.1,1.1-1.1c61.9,0,123.8,0,185.6,0c0,0.1,0,0.1,0,0.2
		c-7.2,0.9-11.5,5.7-11.5,12.9c0,13,0,25.9,0,38.9c0,1.2-0.4,1.6-1.5,1.8c-8.9,1.6-17.7,3.8-26.3,6.6C111,71.8,80.4,91.5,55,119.3
		c-23.8,26-40,56.2-48.9,90.3c-3.3,12.6-5.3,25.5-6.1,38.5c-0.2,3.7-0.4,7.3-0.5,11C-0.5,259.2-0.6,259.2-0.6,259.2z"/>
	<path class="st0" d="M186.1-0.1c0-0.1,0-0.1,0-0.2c17.4,0,34.7,0,52.1,0c0,0.1,0,0.1,0,0.2c-11.8,0-23.6,0-35.4,0
		C197.2,0,191.6-0.1,186.1-0.1z"/>
	<path class="st0" d="M-0.6,259.2c0.1,0,0.1,0,0.2,0c0,2.2,0,4.3,0,6.5h-0.1h-0.1C-0.6,263.5-0.6,261.4-0.6,259.2z"/>
	<path class="st1" d="M-0.5,265.7c0-2.2,0-4.3,0-6.5c0.1-3.7,0.3-7.3,0.5-11c0.8-13,2.9-25.9,6.1-38.5c8.8-34.1,25.1-64.3,48.9-90.3
		c25.4-27.8,56-47.5,91.8-59.2c8.6-2.8,17.4-5.1,26.3-6.6c1.1-0.2,1.5-0.6,1.5-1.8c-0.1-13,0-25.9,0-38.9c0-7.2,4.3-12.1,11.5-12.9
		c5.5,0,11.1,0,16.6,0c11.8,0,23.6,0,35.4,0c7.2,0.9,11.5,5.7,11.5,12.9c0,13,0,25.9,0,38.9c0,1.2,0.4,1.6,1.5,1.8
		c16.7,3,32.7,8.1,48.2,15.1c20.8,9.4,39.7,21.8,56.4,37.3c28.9,26.7,49.1,58.9,60.3,96.7c3.9,13,6.4,26.2,7.6,39.7
		c1.2,13,1.3,26,0.1,39c-2.3,26-9.2,50.7-20.6,74.1c-9.9,20.3-22.8,38.6-38.5,54.9c-16.2,16.7-34.6,30.4-55.2,41.1
		c-17.1,8.9-35,15.2-53.8,19.2c-11,2.3-22.1,3.7-33.4,4.2c-11.3,0.5-22.6,0.2-33.9-1.1c-20.8-2.3-40.8-7.6-60-15.9
		c-23.8-10.3-45.1-24.4-63.8-42.5c-24.7-23.9-42.6-52-53.8-84.5C5.5,315.7,2.1,300,0.5,284c-0.6-5.8-1-11.7-1-17.6
		C-0.4,266.2-0.4,265.9-0.5,265.7z M234.6,40.7c0-8.2,0-16.3,0-24.5c0-1-0.2-1.3-1.3-1.3c-14.1,0-28.2,0-42.4,0
		c-1.1,0-1.4,0.3-1.4,1.4c0,15.8,0,31.5,0,47.3c0,2.5,0,2.6-2.5,2.9c-12.3,1.6-24.4,4.3-36.2,8.1c-32,10.6-59.6,28.1-82.7,52.6
		c-13.9,14.7-25.2,31.1-34,49.3c-13.7,28.4-20.2,58.3-19.6,89.8c0.2,9.8,1.1,19.5,2.7,29.1c3.1,18.5,8.8,36.3,17.1,53.2
		c16.1,32.8,39.3,59.3,69.9,79.2c34,22.2,71.4,32.8,112,32.1c10.2-0.2,20.2-1.2,30.3-3c18.1-3.2,35.4-8.8,52-16.9
		c21.9-10.7,41.3-25.1,58-42.9c13.9-14.9,25.3-31.5,34-49.9c13.7-28.8,20-59.1,19.1-90.9c-0.4-14.7-2.4-29.2-6.2-43.4
		c-10.8-40.9-32.5-74.9-64.8-102.1c-27.1-22.7-58.2-37-93-43.1c-3.3-0.6-6.4-1.8-9.8-1.3c-1,0.1-1.2-0.3-1.2-1.2
		C234.6,57.1,234.6,48.9,234.6,40.7z"/>
	<path class="st0" d="M234.6,40.7c0,8.2,0,16.4,0,24.6c0,0.9,0.2,1.3,1.2,1.2c3.4-0.5,6.6,0.7,9.8,1.3c34.8,6.1,65.9,20.4,93,43.1
		c32.4,27.2,54,61.2,64.8,102.1c3.8,14.2,5.8,28.7,6.2,43.4c0.9,31.8-5.4,62.2-19.1,90.9c-8.7,18.4-20.1,35-34,49.9
		c-16.7,17.9-36,32.2-58,42.9c-16.5,8.1-33.8,13.7-52,16.9c-10,1.8-20.1,2.8-30.3,3c-40.6,0.7-78-9.9-112-32.1
		c-30.5-19.9-53.8-46.5-69.9-79.2c-8.3-16.9-13.9-34.6-17.1-53.2c-1.6-9.6-2.5-19.3-2.7-29.1c-0.6-31.5,5.9-61.5,19.6-89.8
		c8.8-18.2,20.1-34.6,34-49.3c23.1-24.5,50.7-42.1,82.7-52.6c11.8-3.9,23.9-6.5,36.2-8.1c2.5-0.3,2.5-0.3,2.5-2.9
		c0-15.8,0-31.5,0-47.3c0-1.1,0.2-1.4,1.4-1.4c14.1,0,28.2,0,42.4,0c1.1,0,1.3,0.3,1.3,1.3C234.6,24.4,234.6,32.5,234.6,40.7z
		 M218.3,435c47.8-2.2,89.6-20.9,122.5-57.8c32.5-36.5,47.1-79.6,43.3-128.4c-3.9-48.3-24.9-88.3-62.2-119.2
		C286.2,100,244.8,87,198.5,90.5C152,94.1,113,113.8,82.3,148.9C50,185.7,36,229.2,40.2,277.9C44.1,323,63.5,361,97.3,391.2
		C131.3,421.4,171.4,435.6,218.3,435z"/>
	<path class="st1" d="M218.3,435c-46.9,0.5-86.9-13.6-120.8-43.8C63.7,361,44.3,323,40.4,277.9c-4.2-48.7,9.8-92.1,42.1-129
		c30.7-35,69.7-54.8,116.2-58.4c46.2-3.6,87.7,9.5,123.4,39.1c37.2,30.9,58.3,70.9,62.1,119.2c3.8,48.7-10.8,91.9-43.3,128.4
		C307.8,414.1,266,432.8,218.3,435z M54.8,273.6c0.2,3.4,0.5,6.7,1.1,10.1c0.1,0.8,0.1,1.6,0.2,2.4c0.4,2.2,0.9,4.5,1.3,6.7
		c0.4,2.6,1,5.2,1.6,7.7c0.6,2.2,1,4.4,1.8,6.6c1.3,3.7,2.4,7.4,3.7,11.1c0.9,2.4,2,4.8,3,7.2c1.5,3.4,3.1,6.7,4.7,10.1
		c1.1,2.3,2.6,4.4,3.7,6.7c1,2,2.3,3.9,3.5,5.8c1.9,3,4,5.9,6.1,8.7c2.7,3.6,5.5,7,8.4,10.4c3.4,3.9,7.2,7.3,10.8,11
		c2.8,2.9,6,5.3,9.1,7.8c4.1,3.4,8.4,6.3,12.8,9.2c3.3,2.2,6.7,4.2,10.2,6.2c5.4,3,11.1,5.5,16.8,7.9c3.6,1.5,7.3,2.7,11,3.8
		c2.9,0.9,5.9,1.7,8.8,2.4c5.1,1.4,10.4,2.4,15.6,3.1c3.3,0.5,6.7,1.1,10.1,1.2c8.3,0.2,16.5,0.5,24.8-0.2c4.6-0.4,9.2-0.9,13.7-1.7
		c15.2-2.5,29.6-7.2,43.4-14c4.8-2.4,9.5-5,14.1-7.8c6-3.7,11.7-7.8,17.1-12.3c2.8-2.3,5.5-4.8,8.2-7.3c3.2-3,6.2-6.2,9.1-9.5
		c3.3-3.7,6.4-7.6,9.4-11.5c6.9-9.2,12.5-19.2,17.2-29.6c2.7-6.1,5-12.3,6.9-18.7c2.1-7,3.6-14,4.7-21.2c0.6-3.8,0.9-7.7,1.4-11.5
		c0.5-3.5,0.1-7,0.4-10.5c0.2-1.6-0.1-3.3-0.1-5c-0.2-3.2-0.2-6.5-0.5-9.7c-0.3-3.3-0.7-6.6-1.1-9.9c-0.5-3.6-1.2-7.2-2-10.8
		c-1.5-7-3.5-13.8-6-20.5c-3.3-8.9-7.3-17.3-12.1-25.5c-6-10.2-13.1-19.6-21.2-28.2c-3.3-3.5-6.7-6.8-10.3-9.9
		c-3.8-3.4-7.8-6.6-11.9-9.6c-4.6-3.3-9.3-6.4-14.2-9.2c-5.5-3.2-11.3-6-17.2-8.5c-7-3-14.2-5.4-21.6-7.3
		c-6.4-1.6-12.7-2.9-19.3-3.7c-3.7-0.4-7.4-0.9-11.2-1.1c-4.4-0.2-8.8-0.5-13.3-0.4c-3.6,0.1-7.2,0.4-10.8,0.7
		c-2.9,0.3-5.7,0.4-8.5,1c-1.1,0.2-2.2-0.1-3.2,0.3c-1.1,0.4-2.2,0.7-3.3,0.8c-3.3,0.4-6.4,1.3-9.6,2.1c-2.1,0.5-4.2,1.1-6.3,1.8
		c-1.6,0.5-3.2,0.9-4.7,1.5c-0.9,0.3-1.9,0.6-2.8,1c-1.1,0.5-2.3,0.6-3.5,1.2c-1.7,0.8-3.4,1.7-5.3,2.2c-1.6,0.4-3,1.5-4.6,2.1
		c-1,0.4-2,1-2.9,1.5c-1.5,0.8-3.1,1.5-4.7,2.2c-2.3,1.1-4.5,2.5-6.7,3.9s-4.6,2.3-6.4,4.2c-0.1,0.1-0.3,0.2-0.4,0.2
		c-1,0-1.4,0.7-2,1.3c-0.2,0.2-0.4,0.5-0.6,0.6c-2.1,0.4-3.2,2.2-4.8,3.3c-2,1.4-4,3.1-5.9,4.7c-4.3,3.7-8.5,7.4-12.5,11.4
		c-1.7,1.7-3.1,3.8-4.7,5.6c-2.8,3-5.5,6.2-7.8,9.5c-1.6,2.2-3.3,4.4-4.8,6.7c-1.6,2.5-3.2,5-4.7,7.5c-1.4,2.4-2.8,4.8-4.1,7.3
		c-1.1,2.2-2.4,4.3-3.3,6.5c-1.1,2.8-2.7,5.5-3.6,8.4c-0.6,1.8-1.5,3.5-2.1,5.4c-1.3,3.9-2.6,7.9-3.6,11.9c-0.5,2.2-1,4.4-1.5,6.6
		c-0.7,3-1.2,6-1.8,9c-0.6,3.4-1.1,6.8-1.3,10.3c-0.1,3-0.5,6.1-0.5,9.1C54.6,262.4,54.3,268,54.8,273.6z"/>
	<path class="st0" d="M54.8,273.6c-0.5-5.6-0.2-11.2-0.3-16.9c0-3.1,0.4-6.1,0.5-9.1c0.2-3.4,0.6-6.9,1.3-10.3c0.6-3,1.1-6,1.8-9
		c0.5-2.2,1-4.4,1.5-6.6c1-4,2.3-8,3.6-11.9c0.6-1.8,1.5-3.5,2.1-5.4c0.9-2.9,2.4-5.6,3.6-8.4c0.9-2.2,2.2-4.3,3.3-6.5
		c1.3-2.5,2.6-4.9,4.1-7.3c1.5-2.5,3.1-5.1,4.7-7.5c1.5-2.3,3.2-4.5,4.8-6.7c2.4-3.4,5.1-6.5,7.8-9.5c1.6-1.8,3-3.9,4.7-5.6
		c4-4,8.2-7.7,12.5-11.4c1.9-1.6,3.8-3.3,5.9-4.7c1.6-1.1,2.8-2.9,4.8-3.3c0.2,0,0.4-0.4,0.6-0.6c0.6-0.6,1-1.3,2-1.3
		c0.1,0,0.3-0.1,0.4-0.2c1.8-1.9,4.3-2.9,6.4-4.2c2.2-1.4,4.3-2.8,6.7-3.9c1.6-0.7,3.2-1.4,4.7-2.2c1-0.5,2-1.1,2.9-1.5
		c1.6-0.6,3-1.7,4.6-2.1c1.9-0.5,3.6-1.4,5.3-2.2c1.1-0.5,2.3-0.7,3.5-1.2c0.9-0.4,1.9-0.7,2.8-1c1.5-0.6,3.1-1,4.7-1.5
		c2.1-0.7,4.2-1.2,6.3-1.8c3.2-0.8,6.3-1.8,9.6-2.1c1.1-0.1,2.2-0.3,3.3-0.8c0.9-0.4,2.1-0.1,3.2-0.3c2.8-0.6,5.7-0.8,8.5-1
		c3.6-0.3,7.2-0.6,10.8-0.7c4.4-0.1,8.8,0.2,13.3,0.4c3.7,0.1,7.5,0.6,11.2,1.1c6.5,0.8,12.9,2.1,19.3,3.7
		c7.4,1.8,14.6,4.3,21.6,7.3c5.9,2.5,11.6,5.3,17.2,8.5c4.9,2.8,9.7,5.9,14.2,9.2c4.1,3,8.1,6.2,11.9,9.6c3.6,3.2,7.1,6.5,10.3,9.9
		c8.1,8.6,15.2,18,21.2,28.2c4.8,8.1,8.8,16.6,12.1,25.5c2.5,6.7,4.5,13.5,6,20.5c0.8,3.6,1.5,7.2,2,10.8c0.4,3.3,0.8,6.6,1.1,9.9
		c0.2,3.3,0.3,6.5,0.5,9.7c0.1,1.7,0.3,3.3,0.1,5c-0.3,3.5,0,7-0.4,10.5c-0.5,3.8-0.8,7.7-1.4,11.5c-1.1,7.2-2.6,14.2-4.7,21.2
		c-1.9,6.4-4.1,12.6-6.9,18.7c-4.7,10.5-10.3,20.4-17.2,29.6c-3,4-6.1,7.8-9.4,11.5c-2.9,3.3-5.9,6.5-9.1,9.5
		c-2.7,2.5-5.4,5-8.2,7.3c-5.4,4.5-11.1,8.6-17.1,12.3c-4.6,2.9-9.3,5.4-14.1,7.8c-13.8,6.8-28.2,11.5-43.4,14
		c-4.6,0.7-9.1,1.3-13.7,1.7c-8.3,0.7-16.5,0.4-24.8,0.2c-3.4-0.1-6.7-0.8-10.1-1.2c-5.3-0.7-10.5-1.7-15.6-3.1
		c-2.9-0.8-5.9-1.5-8.8-2.4c-3.7-1.2-7.5-2.3-11-3.8c-5.7-2.4-11.4-4.9-16.8-7.9c-3.5-1.9-6.9-3.9-10.2-6.2
		c-4.4-2.9-8.7-5.9-12.8-9.2c-3.1-2.6-6.3-5-9.1-7.8c-3.6-3.7-7.5-7.1-10.8-11c-2.9-3.4-5.7-6.8-8.4-10.4c-2.1-2.9-4.2-5.7-6.1-8.7
		c-1.2-1.9-2.5-3.8-3.5-5.8c-1.2-2.3-2.6-4.4-3.7-6.7c-1.7-3.3-3.2-6.7-4.7-10.1c-1.1-2.4-2.1-4.7-3-7.2c-1.3-3.7-2.4-7.4-3.7-11.1
		c-0.7-2.1-1.2-4.4-1.8-6.6c-0.7-2.5-1.2-5.1-1.6-7.7c-0.4-2.2-0.9-4.5-1.3-6.7c-0.1-0.8-0.1-1.6-0.2-2.4
		C55.3,280.4,55,277,54.8,273.6z M232.2,228.2c0-22.1,0-44.2,0-66.2c0-4.5-3.1-7.9-7.6-7.9c-8.3-0.1-16.6,0-25,0
		c-3.8,0-7.4,3.3-7.4,7.5c0.1,31.9,0.2,63.7-0.2,95.6c0,1.3-0.1,2.6,0,3.8c0.1,1.1-0.2,1.4-1.4,1.4c-17.1,0-34.2,0-51.2-0.1
		c-4.3,0-8,3.3-7.9,7.9c0.1,8.2,0,16.3,0.1,24.5c0.1,4.4,3.5,7.6,7.7,7.6c28.4,0.1,56.9,0.1,85.3,0.1c0.6,0,1.3,0,1.9-0.2
		c3.5-0.9,5.7-3.9,5.7-7.8C232.2,272.4,232.2,250.3,232.2,228.2z"/>
	<path class="st1" d="M232.2,228.2c0,22.1,0,44.2,0,66.2c0,3.9-2.2,6.8-5.7,7.8c-0.6,0.2-1.3,0.2-1.9,0.2c-28.4,0-56.9,0-85.3-0.1
		c-4.2,0-7.6-3.2-7.7-7.6c-0.1-8.2,0.1-16.3-0.1-24.5c-0.1-4.6,3.7-7.9,7.9-7.9c17.1,0.1,34.2,0,51.2,0.1c1.2,0,1.5-0.3,1.4-1.4
		c-0.1-1.3,0-2.6,0-3.8c0.4-31.9,0.2-63.7,0.2-95.6c0-4.2,3.5-7.5,7.4-7.5c8.3,0,16.6,0,25,0c4.4,0,7.6,3.4,7.6,7.9
		C232.2,184.1,232.2,206.2,232.2,228.2z"/>
</g>
</svg>
