<?xml version="1.0" encoding="utf-8"?>
<!-- Generator: Adobe Illustrator 22.1.0, SVG Export Plug-In . SVG Version: 6.00 Build 0)  -->
<svg version="1.1" id="Слой_1" xmlns="http://www.w3.org/2000/svg" xmlns:xlink="http://www.w3.org/1999/xlink" x="0px" y="0px"
	 viewBox="0 0 286 384" style="enable-background:new 0 0 286 384;" xml:space="preserve">
<style type="text/css">
	.st0{fill:#363362;}
</style>
<path class="st0" d="M145,193.3c-43,0-78-41.7-78-93c0-30,4.3-49.9,13.9-64.7C93.4,16.4,114.4,7.1,145,7.1s51.6,9.3,64.1,28.5
	c9.6,14.8,13.9,34.7,13.9,64.6C223,151.5,188,193.3,145,193.3z M145,22.1c-25.1,0-42,7.1-51.5,21.7C85.5,56,82,73.4,82,100.3
	c0,43,28.3,78,63,78s63-35,63-78.1c0-26.9-3.5-44.3-11.5-56.4C187,29.2,170.1,22.1,145,22.1z"/>
<path d="M11.9,327.5C11.9,324.6,11.9,326.7,11.9,327.5L11.9,327.5z"/>
<path class="st0" d="M145,383.2c-48.3,0-86.2-6.9-112.6-20.6c-20.7-10.7-26.6-21.8-27.3-23.1L4.4,338v-10.5h15
	c0-3.3-2.8-7.1-7.2-7.2c-4.4-0.2-7.5,3.4-7.7,6.8c0,0,0.1-1,0.1-5.8c0.7-38.8,3.6-65.1,16.3-84.5c12.4-19,32.9-30,70.9-38.2
	c11-2.3,21.9,4.6,24.3,15.6c7.5,33.8,18.9,55.6,28.9,55.6c5.4,0,11.4-6.6,17-18.4c5.6-12.1,9.5-26.8,11.8-37
	c2.4-11,13.4-18.1,24.4-15.7c38.4,8.2,59,19.5,71.3,38.9c12.5,19.6,15.3,46.6,15.9,86.4c0.1,4.1,0.2,5.1,0.2,5.2
	c-0.1-1.9-1.1-3.8-2.8-5.1l-4.9,0.1l4.9-0.1c-1.3-1-3-1.7-5-1.6l0.3,7.4h7.5v8.2l-0.8,1.6c-0.6,1.2-6.6,12.4-27.3,23.1
	C231.2,376.3,193.3,383.2,145,383.2z M19.4,334c4.7,6.3,31.2,34.2,125.6,34.2c94.9,0,121.1-28.1,125.6-34.2v-4c0-0.3-0.1-0.6-0.1-1
	c0-0.9-0.1-2.4-0.1-4.7l0,0c-1.2-75.9-10.2-96.9-75.4-110.9c-3-0.6-6,1.3-6.6,4.3c-6.8,30.7-19.8,67.2-43.4,67.2
	c-11.9,0-22.2-9.1-30.6-27.2c-6.3-13.3-10.5-29.2-12.9-40.2c-0.7-2.9-3.6-4.8-6.5-4.2c-65,13.9-74,34.3-75.4,108.2
	c0,2.6-0.1,4.2-0.1,5.2c0,0.4,0,0.8-0.1,1.2V334z M285.6,329.1L285.6,329.1L285.6,329.1z M4.5,327.1L4.5,327.1L4.5,327.1L4.5,327.1z
	"/>
<path class="st0" d="M154.9,206.6c-1-1.1-2.6-1.7-4.1-1.7h-11.6c-1.6,0-3.1,0.6-4.1,1.7c-1.6,1.8-1.9,4.3-0.7,6.3l6.2,9.3l-2.9,24.4
	l5.7,15.2c0.6,1.5,2.7,1.5,3.3,0l5.7-15.2l-2.9-24.4l6.2-9.3C156.8,210.9,156.5,208.3,154.9,206.6z"/>
<polygon class="st0" points="19.4,328.9 4.4,328.9 4.7,318.6 19.4,319.5 "/>
<polygon class="st0" points="277.7,330 285.6,330 285.4,322.2 277.7,322.2 "/>
</svg>
